<?xml version="1.0" encoding="utf-8"?>
<!-- Generator: Adobe Illustrator 25.1.0, SVG Export Plug-In . SVG Version: 6.00 Build 0)  -->
<svg version="1.1" xmlns="http://www.w3.org/2000/svg" xmlns:xlink="http://www.w3.org/1999/xlink" x="0px" y="0px"
	 viewBox="0 0 228 220" style="enable-background:new 0 0 228 220;" xml:space="preserve">
<style type="text/css">
	.st0{fill:url(#SVGID_1_);}
	.st1{fill:url(#SVGID_2_);}
	.st2{fill:url(#SVGID_3_);}
	.st3{fill:url(#SVGID_4_);}
	.st4{opacity:0.31;fill:#FFFFFF;}
	.st5{opacity:0.58;fill:#FFFFFF;}
	.st6{display:none;}
	.st7{display:inline;}
	.st8{fill:url(#SVGID_5_);stroke:url(#SVGID_6_);stroke-miterlimit:10;}
	.st9{fill:#FFFFFF;}
	.st10{fill:url(#SVGID_7_);}
	.st11{fill:url(#SVGID_8_);}
	.st12{opacity:0.2;fill:none;stroke:#FFFFFF;stroke-width:3;stroke-miterlimit:10;}
</style>
<g id="Calque_6">
	<g>
		<linearGradient id="SVGID_1_" gradientUnits="userSpaceOnUse" x1="52.9053" y1="138.3583" x2="192.9753" y2="138.3583">
			<stop  offset="0" style="stop-color:#42B6A1"/>
			<stop  offset="1" style="stop-color:#5661AA"/>
		</linearGradient>
		<path class="st0" d="M193,156.9c0,0-17.2,19.3-20.7,18.8l-16.7-18.6c0,0-3.6-1.2-12.5,0s-35.8,7-46.8-0.5s-21.8-12.4-39.2-35.2
			c0,0-8.5-9.9-1.4-17.7s14,3.2,17,5.9c8,6.9,14.1,12.3,14.1,12.3l-2.7,3.2c0,0,0.3,2.7-1.7,2.1c-2-0.6,10.4-10.9,12-5
			c1.5,6,33.8-7.7,49.8-4.8c16,2.9,20.9,14.8,28.2,19C179.7,140.7,184.9,150.2,193,156.9z"/>
		<linearGradient id="SVGID_2_" gradientUnits="userSpaceOnUse" x1="80.7578" y1="135.4371" x2="193.371" y2="135.4371">
			<stop  offset="0" style="stop-color:#42B6A1"/>
			<stop  offset="1" style="stop-color:#5661AA"/>
		</linearGradient>
		<path class="st1" d="M193,153.5c0,0,0.9,2.2,0,3.4s-2.7,1.8-6.7-1.7S160.9,130,159,127.8c-1.9-2.2-9.2-11.7-26.3-8.5
			c-17.1,3.2-14.7,6.4-31.4,5.3C84.5,123.5,87,125.9,87,127c0,1.1,3.1,4.9,18.1,6.7s25.2,1.7,25.2,1.7s2.3,2,1.9,3.6
			c-0.4,1.6-1,2.7-5.3,2.7c-4.4-0.1-30.7-1.4-39.2-5.7s-9.5-13-0.8-16.5c8.8-3.5,16,2.7,31.8-2.7c15.8-5.4,29.1-4.6,37.4,0.8
			S188.6,150.5,193,153.5z"/>
		<linearGradient id="SVGID_3_" gradientUnits="userSpaceOnUse" x1="98.9682" y1="117.9792" x2="98.9682" y2="117.9792">
			<stop  offset="0" style="stop-color:#42B6A1"/>
			<stop  offset="1" style="stop-color:#5661AA"/>
		</linearGradient>
		<path class="st2" d="M99,118"/>
		<g>
			<linearGradient id="SVGID_4_" gradientUnits="userSpaceOnUse" x1="67.6343" y1="79.4514" x2="158.6106" y2="79.4514">
				<stop  offset="0" style="stop-color:#42B6A1"/>
				<stop  offset="1" style="stop-color:#5661AA"/>
			</linearGradient>
			<path class="st3" d="M104.2,117.1c0,0,4.2,0.9,6.5,0V80c0,0,18.4-0.1,23.8-1.9s24.6-11.2,24.1-34.4c0,0-0.1-2-2.2-2.1
				c-2.1-0.1-20-0.4-23.8,0.4s-25.7,5.9-28,33.5c0,0-8.1-9-18.9-9.9c-10.8-0.8-16.8-0.2-17,0.3s-1.1,1.6-1,2.3
				c0.1,0.7,0,10.1,4.1,15s7.5,13.7,32.9,12.7L104.2,117.1z"/>
			<path class="st4" d="M111.4,71.5c0,0,3.8-16.1,16.5-21.5s14.6-0.4,24-2.5c0,0-1.1,15-11.4,20.8c-10.4,5.8-15.1,5.3-24.8,5.3
				c0,0,7.4-7.4,23.7-16.7C139.3,56.8,122.3,61.8,111.4,71.5z"/>
			<path class="st5" d="M103.2,85.9c0,0-2.9-8.4-9.9-11.6C86.3,71,74,71.8,74,71.8s2.8,20,26.5,17.9c0,0-12.5-9.1-14.6-9.9
				S98.1,82.1,103.2,85.9z"/>
		</g>
	</g>
</g>
<g id="Calque_3" class="st6">
	<g class="st7">
		<linearGradient id="SVGID_5_" gradientUnits="userSpaceOnUse" x1="81.0136" y1="130.2308" x2="145.0138" y2="130.2308">
			<stop  offset="0" style="stop-color:#42B6A1"/>
			<stop  offset="1" style="stop-color:#5661AA"/>
		</linearGradient>
		<linearGradient id="SVGID_6_" gradientUnits="userSpaceOnUse" x1="80.5136" y1="130.2308" x2="145.5138" y2="130.2308">
			<stop  offset="0" style="stop-color:#42B6A1"/>
			<stop  offset="1" style="stop-color:#5661AA"/>
		</linearGradient>
		<path class="st8" d="M95.2,88.9h35.5c0,0,15.9,12.5,14.2,36.4c-1.7,23.8-12.4,36.9-14.1,39c-1.7,2-7.1,7.6-16.3,7.4
			s-13.6-1.6-17.6-5.9c-4-4.3-8.7-11.6-13.6-26.9S81,101,95.2,88.9z"/>
		<path class="st9" d="M96.7,98h6.7c0,0-18.7,22.6-0.8,54.7c0,0-2.7-1-5.5-3.7C94.2,146.4,81.2,117.4,96.7,98z"/>
		<linearGradient id="SVGID_7_" gradientUnits="userSpaceOnUse" x1="116.1302" y1="71.3651" x2="138.292" y2="71.3651">
			<stop  offset="0" style="stop-color:#42B6A1"/>
			<stop  offset="1" style="stop-color:#5661AA"/>
		</linearGradient>
		<path class="st10" d="M130.3,88.2h-2.6l2.3-9.5c0,0-7.9,4-13.8-10.5c0,0,10.7-4,14.6,7l4.7-19.9c0,0,0.9-1,1.8-0.8s1.1,1.1,1,1.8
			C138.1,57,130.3,88.2,130.3,88.2z"/>
	</g>
</g>
<g id="Calque_7" class="st6">
	<g class="st7">
		<linearGradient id="SVGID_8_" gradientUnits="userSpaceOnUse" x1="53.0698" y1="108.6996" x2="180.1511" y2="108.6996">
			<stop  offset="0" style="stop-color:#42B6A1"/>
			<stop  offset="1" style="stop-color:#5661AA"/>
		</linearGradient>
		<circle class="st11" cx="116.6" cy="108.7" r="63.5"/>
		<circle class="st12" cx="117" cy="108.1" r="56.2"/>
		<path class="st9" d="M142.3,73l-1.7,9.2c0,0-18.1-7.7-30.5,0s-21.8,28.7-8.8,44.8s35.4,13,44.9,3.2V142c0,0-36,17.4-54.1-10.7
			S96,72.9,114,69.9C132,67,142.3,73,142.3,73z"/>
		<polygon class="st9" points="76.7,95 75.6,104.3 128.7,104.3 130.6,95 		"/>
		<polygon class="st9" points="72.6,112 71.5,121.3 124.6,121.3 126.5,112 		"/>
	</g>
</g>
</svg>
