<svg id="Calque_1" data-name="Calque 1" xmlns="http://www.w3.org/2000/svg" xmlns:xlink="http://www.w3.org/1999/xlink" viewBox="0 0 411.26 458.55"><defs><style>.cls-1{fill:url(#Dégradé_sans_nom_39);}</style><linearGradient id="Dégradé_sans_nom_39" x1="-772.97" y1="187.6" x2="-362.48" y2="-165.34" gradientUnits="userSpaceOnUse"><stop offset="0" stop-color="#5661aa"/><stop offset="1" stop-color="#42b6a1"/></linearGradient></defs><path class="cls-1" d="M-629-106.69a53.2,53.2,0,0,0-53.2,53.2V-.9A88.49,88.49,0,0,1-770.7,87.6h0V-86.65c0-60.54,49.53-110.07,110.07-110.07h176.38a90,90,0,0,1-90,90Zm70.36,174.88c0-29.38,25.07-50.2,54.45-50.2A53.09,53.09,0,0,1-451,71.19a53.2,53.2,0,0,1-53.2,53.2h-53.2a90.05,90.05,0,0,0,87.86,90h0c60.54,0,110.07-49.53,110.07-110.07V38C-359.44-22.51-409-72-469.51-72h-66.32C-596.36-72-645.9-22.51-645.9,38l1.74,116.67c0,53.2,34.48,97.08,84.85,107.13l2.8-95.82Z" transform="translate(770.7 196.72)"/></svg>